<svg version="1.1" id="Layer_1" xmlns="http://www.w3.org/2000/svg" xmlns:xlink="http://www.w3.org/1999/xlink" x="0px" y="0px"
	 width="100%" viewBox="0 0 829 828" enable-background="new 0 0 829 828" xml:space="preserve">
<path fill="#000000" opacity="1.000000" stroke="none" 
	d="
M483.000000,829.000000 
	C323.500061,829.000000 164.500076,828.984619 5.500206,829.093872 
	C1.751110,829.096436 0.905306,828.249573 0.906711,824.500061 
	C1.008985,551.500183 1.008982,278.500305 0.906805,5.500424 
	C0.905402,1.752202 1.749493,0.905260 5.499643,0.906664 
	C278.832855,1.008983 552.166138,1.008959 825.499329,0.906850 
	C829.247009,0.905450 830.094788,1.748673 830.093384,5.499396 
	C829.991028,278.499298 829.991028,551.499207 830.093079,824.499084 
	C830.094482,828.246155 829.252625,829.098511 825.500793,829.094666 
	C711.500610,828.978577 597.500305,829.000000 483.000000,829.000000 
z"/>
<path fill="#9EBB74" opacity="1.000000" stroke="none" 
	d="
M199.838196,491.452423 
	C211.514847,495.976074 222.249649,501.609100 233.014313,507.135315 
	C244.379929,512.970032 255.580170,519.122253 266.512482,525.758179 
	C276.448975,531.789612 286.297821,537.956421 296.162781,544.099670 
	C305.777496,550.087158 315.362244,556.217163 324.547211,562.721375 
	C337.236084,571.706848 350.154633,580.523376 361.858948,590.878906 
	C364.264069,593.006775 366.731995,595.106750 371.044586,597.088562 
	C363.692444,597.257202 358.017029,595.779907 352.333923,594.664856 
	C329.113861,590.109314 306.598602,582.950806 284.495087,574.732849 
	C260.011688,565.629883 236.169617,554.855347 213.155670,542.466675 
	C191.832718,530.988342 172.031204,517.147095 153.840622,501.120087 
	C149.939240,497.682739 146.667297,493.531006 142.955597,489.394867 
	C143.941864,486.612885 146.274292,486.772552 148.379898,486.683350 
	C163.812286,486.029816 179.184540,488.016663 194.611572,487.796265 
	C196.855331,487.764221 198.934174,488.406586 199.838196,491.452423 
z"/>
<path fill="#9EBC74" opacity="1.000000" stroke="none" 
	d="
M494.938538,456.479065 
	C518.071594,458.594269 540.637939,462.395660 562.935791,467.924744 
	C585.478271,473.514465 607.517822,480.594757 628.766785,489.988251 
	C642.969971,496.267029 656.756348,503.354553 669.153442,512.850159 
	C670.030945,513.522217 671.246338,513.972351 671.481018,515.454468 
	C668.827209,517.968384 665.278076,517.192383 662.167847,517.623596 
	C638.481812,520.907837 614.944092,519.086609 591.435852,515.440918 
	C565.683411,511.447266 540.546204,505.035095 515.964966,496.506134 
	C497.461823,490.086090 479.517242,482.337433 462.276886,472.926544 
	C458.977997,471.125885 456.231628,468.467804 452.336426,467.064056 
	C451.706146,463.983063 453.920746,463.303070 456.006958,462.850647 
	C465.569611,460.776642 474.882874,457.764435 484.374451,455.446747 
	C487.768982,454.617859 491.448700,453.253906 494.938538,456.479065 
z"/>
<path fill="#807A54" opacity="1.000000" stroke="none" 
	d="
M495.193542,456.477417 
	C489.936829,456.477142 484.973480,457.738739 479.993286,459.120819 
	C470.871918,461.652100 461.704498,464.017578 452.281738,466.694794 
	C440.982422,470.137939 429.632416,471.806000 418.403931,474.042786 
	C414.683929,474.783875 410.922821,475.317352 407.190735,476.001434 
	C406.819061,476.069550 405.593109,475.765594 406.346436,476.893677 
	C406.568604,477.226318 407.240112,477.258942 407.913757,477.655151 
	C407.562469,479.280212 406.456726,480.038513 405.024658,479.939240 
	C395.981812,479.312256 387.197876,481.443970 378.297394,482.327362 
	C376.161011,482.539429 373.981689,482.662750 371.427734,481.993835 
	C358.947540,483.080261 346.893982,484.245728 334.840942,485.416534 
	C331.383820,485.752350 327.928223,486.103577 324.255188,486.690491 
	C323.364227,488.258240 322.223663,488.779327 320.799835,488.809723 
	C308.573822,489.070770 296.419312,490.888855 284.161774,490.489624 
	C282.999268,490.451752 281.849213,490.414154 280.276184,490.049255 
	C272.795013,490.016541 265.743164,489.722198 258.730255,490.117889 
	C239.318573,491.213074 219.886765,490.591827 200.274475,491.499298 
	C196.798920,489.961273 193.184052,490.009521 189.540924,489.940613 
	C174.278305,489.651886 159.017410,489.272095 143.280853,489.003540 
	C115.065941,488.141663 87.418419,485.968170 59.801144,483.225830 
	C50.624142,482.314575 41.457600,481.414490 32.324352,480.140137 
	C29.184086,479.701996 26.078827,479.085144 26.200371,475.150421 
	C26.308849,471.638641 32.599373,466.698364 35.777500,467.186737 
	C62.146111,471.238617 88.676987,473.575165 115.293259,475.283264 
	C121.482376,475.680481 127.783173,475.502014 134.321976,476.777374 
	C140.234222,477.444275 145.834778,476.290649 151.728973,477.760193 
	C152.306091,477.980408 152.473389,477.984375 152.874054,478.080872 
	C154.510986,478.746918 155.917191,478.574524 157.627487,478.129089 
	C168.003113,478.371307 178.075439,478.672791 188.600708,478.980652 
	C190.600311,477.061157 192.404663,476.906525 194.758606,478.586609 
	C217.509018,479.114136 239.921722,479.295105 262.730469,478.317444 
	C267.843658,476.399567 272.568268,474.836182 277.821533,477.599243 
	C295.767365,476.716064 313.523804,476.495789 331.478851,473.933350 
	C336.646973,471.613068 341.893127,471.220795 346.984650,471.096924 
	C353.323029,470.942627 359.207153,468.277283 365.802277,468.759766 
	C368.703674,471.502197 371.643158,469.845154 374.325592,469.473450 
	C389.192230,467.413208 404.027039,465.123291 419.289673,462.921844 
	C427.154144,457.893097 435.764648,457.333405 444.670471,456.766357 
	C454.373718,455.536987 463.531799,453.205627 472.651581,450.769745 
	C482.981262,448.010681 493.213348,444.887451 503.527954,442.069244 
	C505.169891,441.620667 506.634705,441.011841 508.345825,439.945435 
	C511.309021,437.716980 514.244812,436.284912 517.488037,435.384552 
	C525.239807,433.232513 532.510010,429.997772 539.485107,425.271545 
	C541.032898,424.860016 542.212769,424.932587 544.019897,425.664185 
	C551.156555,426.340454 556.134277,422.256409 561.556152,419.910187 
	C576.676086,413.367371 591.060181,405.295624 605.742310,397.157776 
	C608.940613,400.767792 605.929077,402.335144 603.345642,404.394318 
	C594.032288,412.418671 583.226013,417.339417 573.195435,423.485596 
	C570.856262,424.918915 568.476990,426.286652 565.988281,428.040070 
	C565.994324,429.298004 565.670044,430.259308 564.918518,430.476288 
	C556.918335,432.786194 550.020020,438.035309 541.219849,439.177307 
	C525.634033,444.806793 510.428894,450.460815 495.193542,456.477417 
z"/>
<path fill="#9EBC74" opacity="1.000000" stroke="none" 
	d="
M371.232849,482.162079 
	C377.499695,478.665314 384.738831,479.289551 391.619446,478.069794 
	C396.765686,477.157471 402.040253,476.640625 407.693237,477.907959 
	C421.809937,478.374939 435.051208,481.525177 448.270203,484.734558 
	C475.785889,491.415009 502.264343,501.084015 528.124146,512.545959 
	C542.119568,518.749146 555.869080,525.492188 568.996277,533.307800 
	C574.173950,536.390442 580.270752,538.639282 584.665405,544.802246 
	C578.684265,544.342407 573.474121,544.040649 568.285278,543.525085 
	C549.784973,541.686951 531.240417,540.176453 512.808105,537.800476 
	C484.140991,534.105042 455.728912,529.128906 428.648743,518.343811 
	C416.223053,513.395081 404.383759,507.539856 393.225800,500.089478 
	C385.375580,494.847748 377.411255,489.922455 371.232849,482.162079 
z"/>
<path fill="#9EBC74" opacity="1.000000" stroke="none" 
	d="
M280.067871,490.250366 
	C281.467773,488.238007 283.725861,488.241089 285.804779,488.196350 
	C296.353149,487.969055 306.854370,487.090118 317.363922,486.262726 
	C319.286041,486.111420 321.265228,486.685242 323.628265,486.928802 
	C338.708801,492.450745 353.564941,497.489960 367.883698,503.913696 
	C385.160034,511.664246 402.176514,519.905823 418.876343,528.876709 
	C430.983185,535.380310 443.008667,542.039856 454.638550,549.285583 
	C467.584351,557.351196 480.734772,565.300598 492.677032,576.761658 
	C478.450775,574.563293 465.231445,572.433838 452.130798,569.395996 
	C426.259033,563.396729 400.656677,556.505981 375.843781,546.973511 
	C358.970062,540.491028 342.490601,533.201538 326.412415,524.789307 
	C311.635773,517.057983 298.960175,506.755920 286.003082,496.641296 
	C283.741028,494.875427 282.920410,491.876770 280.067871,490.250366 
z"/>
<path fill="#9EBC74" opacity="1.000000" stroke="none" 
	d="
M278.202148,477.610260 
	C273.320404,477.962891 268.642029,479.926605 263.475128,478.398743 
	C263.074005,467.915100 269.021027,460.114258 274.803375,452.734009 
	C283.643982,441.450439 293.987000,431.461853 304.636597,421.799469 
	C322.439697,405.646606 341.775085,391.504883 362.022491,378.725922 
	C373.628265,371.401093 385.905487,365.010071 398.527496,359.393555 
	C413.313812,352.813965 428.368011,347.163879 444.593689,344.224945 
	C444.065338,347.496674 441.010834,348.208649 439.189972,350.007599 
	C437.229523,351.944427 435.130341,353.753510 432.990875,355.494446 
	C416.461426,368.944763 400.777191,383.350861 384.856201,397.501099 
	C369.556274,411.099426 354.342468,424.812836 338.504150,437.828308 
	C324.789490,449.098541 310.844543,459.951080 295.568024,468.977600 
	C290.091400,472.213654 284.542358,475.494965 278.202148,477.610260 
z"/>
<path fill="#9EBC74" opacity="1.000000" stroke="none" 
	d="
M195.205383,478.617126 
	C193.369415,478.970093 191.642273,478.973175 189.484375,478.981628 
	C185.949615,471.585754 190.083145,465.526855 193.772491,460.243134 
	C202.884842,447.192841 213.231201,434.966064 225.153076,424.414734 
	C238.282318,412.794861 252.112305,401.966492 266.477905,391.833344 
	C282.455688,380.563080 299.182953,370.573212 316.683228,361.946442 
	C330.118683,355.323456 344.195526,350.167725 358.605011,345.998810 
	C359.206909,345.824677 359.903137,345.976562 361.762360,345.976562 
	C356.286865,351.697449 352.835449,357.780823 347.318878,362.414429 
	C343.453064,365.661469 340.292572,369.809662 336.745270,373.497253 
	C328.205933,382.374329 318.972351,390.493622 309.945526,398.829407 
	C300.928253,407.156372 291.716827,415.307159 282.179840,423.027924 
	C271.914825,431.338043 261.262115,439.180542 250.614639,447.003967 
	C239.073242,455.484192 227.061600,463.286072 214.383804,469.966705 
	C208.256012,473.195801 201.930756,476.098633 195.205383,478.617126 
z"/>
<path fill="#9EBB74" opacity="1.000000" stroke="none" 
	d="
M366.360260,468.869263 
	C355.416016,474.297699 343.870056,473.916168 332.150818,474.112793 
	C332.736572,470.121796 334.288940,466.638641 336.551544,463.591583 
	C350.273804,445.112000 366.164520,428.777344 384.178040,414.377686 
	C392.699951,407.565399 401.098572,400.599823 409.747742,393.933197 
	C424.107788,382.864716 439.560211,373.548340 455.267212,364.581390 
	C462.418060,360.499084 469.785095,356.886292 477.368713,353.757294 
	C485.777466,350.287872 494.263062,346.893707 503.863129,346.156860 
	C500.195648,352.393707 494.552155,356.337585 490.031158,361.272919 
	C484.282654,367.548279 477.916443,373.257721 471.818054,379.212677 
	C463.717163,387.122925 455.646881,395.064758 447.508789,402.936523 
	C440.321930,409.888245 433.256042,416.983398 425.779877,423.612762 
	C417.206879,431.214722 408.355286,438.516174 399.415253,445.687042 
	C388.995178,454.045135 378.377686,462.162537 366.360260,468.869263 
z"/>
<path fill="#9EBB74" opacity="1.000000" stroke="none" 
	d="
M603.453491,404.653870 
	C603.069214,401.958496 605.175110,400.185028 606.033813,397.503204 
	C615.936584,383.934021 627.284546,372.119629 639.224915,360.772186 
	C648.487488,351.969543 658.246643,343.876404 668.787598,336.709015 
	C684.116760,326.285797 700.657288,318.481720 718.714417,314.054901 
	C727.539429,311.891418 736.498474,310.872681 745.589905,311.034973 
	C747.547729,311.069946 750.053528,310.705292 750.967407,312.455627 
	C751.697937,313.854858 749.501587,315.186279 748.535461,316.479919 
	C737.619690,331.096710 724.088074,343.086395 710.062195,354.559265 
	C686.969604,373.448517 661.896301,389.145142 634.295776,400.564575 
	C626.312561,403.867554 617.960999,406.491089 609.069214,405.862000 
	C607.322693,405.738464 605.613281,405.090057 603.453491,404.653870 
z"/>
<path fill="#9EBB74" opacity="1.000000" stroke="none" 
	d="
M540.954102,439.471802 
	C548.302307,434.102478 556.306641,430.326141 565.558960,428.586517 
	C584.171143,425.839264 602.548157,424.466949 621.045776,423.772278 
	C648.589722,422.737823 675.948303,423.687164 703.164978,428.015106 
	C714.946594,429.888580 726.504578,432.681976 738.126770,437.650360 
	C734.261414,439.985413 730.196350,439.974823 726.591858,440.782074 
	C711.724487,444.111969 696.915527,447.775604 681.980896,450.723145 
	C665.178711,454.039246 648.212402,456.557770 631.106689,458.138275 
	C617.477295,459.397614 603.868347,459.783569 590.290039,458.568909 
	C572.203491,456.950928 555.032043,452.447418 540.954102,439.471802 
z"/>
<path fill="#9EBC74" opacity="1.000000" stroke="none" 
	d="
M541.203735,427.177917 
	C533.015259,433.494324 523.374390,436.054871 514.008850,439.207581 
	C512.473816,439.724304 510.976440,440.629425 508.944489,439.925415 
	C509.881500,433.216248 512.807861,427.426239 516.818054,422.204498 
	C521.279663,416.394867 525.900818,410.705963 530.523376,405.022125 
	C537.312134,396.674652 545.448242,389.639526 552.938171,381.979858 
	C561.678894,373.041077 571.244568,365.060760 580.744873,357.081879 
	C592.617493,347.110596 605.149353,337.877014 617.940369,329.040558 
	C629.364807,321.148132 641.167908,313.911652 653.457520,307.460175 
	C654.329529,307.002411 655.210388,306.511169 656.146423,306.240417 
	C657.000854,305.993256 657.698792,304.665985 658.742859,305.621307 
	C659.879822,306.661652 658.521301,307.301544 658.209778,308.127625 
	C656.134094,313.631378 652.998596,318.598175 649.946411,323.546021 
	C641.324951,337.522064 630.760254,350.180420 619.374573,361.791260 
	C597.836670,383.755066 574.553894,403.881561 549.055542,421.279083 
	C547.355774,422.438812 545.846008,423.876984 544.467285,425.532562 
	C544.686768,425.879456 544.866089,425.980927 544.921021,425.893799 
	C544.066284,426.840454 542.617554,426.682648 541.203735,427.177917 
z"/>
<path fill="#9EBB74" opacity="1.000000" stroke="none" 
	d="
M445.181152,456.688751 
	C437.326416,460.838318 428.808044,461.328796 420.136780,462.944000 
	C421.154846,454.515808 426.431427,448.017395 430.993988,441.280762 
	C438.073578,430.827759 446.827850,421.665924 455.539307,412.602600 
	C463.154816,404.679535 471.261902,397.177155 479.190155,389.544128 
	C492.790619,376.450165 507.202332,364.345703 522.170471,352.993469 
	C535.739075,342.702728 549.813721,332.885010 565.903687,326.583405 
	C567.374207,326.007477 569.072510,325.411133 570.078247,326.438141 
	C571.341003,327.727631 569.389160,328.688110 568.790527,329.723572 
	C561.942566,341.568512 554.399170,352.895233 544.281128,362.288177 
	C543.313599,363.186401 542.562439,364.322998 541.740967,365.372559 
	C532.364319,377.352692 521.377808,387.820068 510.842773,398.734924 
	C501.940430,407.958221 492.701965,416.815796 483.279724,425.452972 
	C471.249329,436.480896 458.903595,447.205200 445.181152,456.688751 
z"/>
<path fill="#97B26F" opacity="1.000000" stroke="none" 
	d="
M151.919922,477.651123 
	C146.564514,477.988373 140.964981,478.554840 135.087738,476.979462 
	C140.437958,475.321625 146.109192,475.168152 151.919922,477.651123 
z"/>
<path fill="#97B26F" opacity="1.000000" stroke="none" 
	d="
M157.654938,477.956726 
	C156.595184,479.079987 155.166168,479.050171 153.396713,478.312256 
	C154.531296,478.063477 155.955200,477.953552 157.654938,477.956726 
z"/>
<path fill="#000000" opacity="1.000000" stroke="none" 
	d="
M541.018372,427.307312 
	C542.087585,426.353912 543.313538,425.710419 544.757690,425.436768 
	C544.409912,427.881592 542.861694,427.894684 541.018372,427.307312 
z"/>
</svg>