<svg width="500" height="500" viewBox="0 0 500 500" fill="none" xmlns="http://www.w3.org/2000/svg">
<rect width="500" height="500" fill="white"/>
<g filter="url(#filter0_d_54_85)">
<path d="M242.573 269.687H262.261L273.921 284.805L282.241 294.648L302.222 320.312H281.128L267.534 303.086L261.733 294.883L242.573 269.687ZM305.093 250C305.093 262.93 302.671 274.004 297.827 283.223C293.022 292.402 286.46 299.434 278.14 304.316C269.858 309.199 260.464 311.641 249.956 311.641C239.448 311.641 230.034 309.199 221.714 304.316C213.433 299.395 206.87 292.344 202.026 283.164C197.222 273.945 194.819 262.891 194.819 250C194.819 237.07 197.222 226.016 202.026 216.836C206.87 207.617 213.433 200.566 221.714 195.684C230.034 190.801 239.448 188.359 249.956 188.359C260.464 188.359 269.858 190.801 278.14 195.684C286.46 200.566 293.022 207.617 297.827 216.836C302.671 226.016 305.093 237.07 305.093 250ZM283.237 250C283.237 240.898 281.812 233.223 278.96 226.973C276.147 220.684 272.241 215.938 267.241 212.734C262.241 209.492 256.479 207.871 249.956 207.871C243.433 207.871 237.671 209.492 232.671 212.734C227.671 215.938 223.745 220.684 220.894 226.973C218.081 233.223 216.675 240.898 216.675 250C216.675 259.102 218.081 266.797 220.894 273.086C223.745 279.336 227.671 284.082 232.671 287.324C237.671 290.527 243.433 292.129 249.956 292.129C256.479 292.129 262.241 290.527 267.241 287.324C272.241 284.082 276.147 279.336 278.96 273.086C281.812 266.797 283.237 259.102 283.237 250Z" fill="#FF0062"/>
</g>
<defs>
<filter id="filter0_d_54_85" x="194.819" y="185.359" width="124.273" height="139.953" filterUnits="userSpaceOnUse" color-interpolation-filters="sRGB">
<feFlood flood-opacity="0" result="BackgroundImageFix"/>
<feColorMatrix in="SourceAlpha" type="matrix" values="0 0 0 0 0 0 0 0 0 0 0 0 0 0 0 0 0 0 127 0" result="hardAlpha"/>
<feOffset dx="10" dy="1"/>
<feGaussianBlur stdDeviation="2"/>
<feComposite in2="hardAlpha" operator="out"/>
<feColorMatrix type="matrix" values="0 0 0 0 0 0 0 0 0 0 0 0 0 0 0 0 0 0 0.25 0"/>
<feBlend mode="normal" in2="BackgroundImageFix" result="effect1_dropShadow_54_85"/>
<feBlend mode="normal" in="SourceGraphic" in2="effect1_dropShadow_54_85" result="shape"/>
</filter>
</defs>
</svg>
