<svg width="500" height="500" viewBox="0 0 500 500" fill="none" xmlns="http://www.w3.org/2000/svg">
<rect width="500" height="500" fill="white"/>
<g filter="url(#filter0_d_54_55)">
<path d="M208.115 310V190H254.052C262.724 190 269.931 191.367 275.673 194.102C281.455 196.797 285.771 200.488 288.623 205.176C291.513 209.863 292.958 215.176 292.958 221.113C292.958 225.996 292.021 230.176 290.146 233.652C288.271 237.09 285.751 239.883 282.587 242.031C279.423 244.18 275.888 245.723 271.982 246.66V247.832C276.24 248.066 280.322 249.375 284.228 251.758C288.173 254.102 291.396 257.422 293.896 261.719C296.396 266.016 297.646 271.211 297.646 277.305C297.646 283.516 296.142 289.102 293.134 294.062C290.126 298.984 285.595 302.871 279.541 305.723C273.486 308.574 265.869 310 256.689 310H208.115ZM229.853 291.836H253.232C261.123 291.836 266.806 290.332 270.283 287.324C273.798 284.277 275.556 280.371 275.556 275.605C275.556 272.051 274.677 268.848 272.919 265.996C271.162 263.105 268.662 260.84 265.419 259.199C262.177 257.52 258.31 256.68 253.818 256.68H229.853V291.836ZM229.853 241.035H251.357C255.107 241.035 258.486 240.352 261.494 238.984C264.501 237.578 266.865 235.605 268.583 233.066C270.341 230.488 271.22 227.441 271.22 223.926C271.22 219.277 269.58 215.449 266.298 212.441C263.056 209.434 258.232 207.93 251.826 207.93H229.853V241.035Z" fill="#FF7700"/>
</g>
<defs>
<filter id="filter0_d_54_55" x="208.115" y="187" width="103.531" height="128" filterUnits="userSpaceOnUse" color-interpolation-filters="sRGB">
<feFlood flood-opacity="0" result="BackgroundImageFix"/>
<feColorMatrix in="SourceAlpha" type="matrix" values="0 0 0 0 0 0 0 0 0 0 0 0 0 0 0 0 0 0 127 0" result="hardAlpha"/>
<feOffset dx="10" dy="1"/>
<feGaussianBlur stdDeviation="2"/>
<feComposite in2="hardAlpha" operator="out"/>
<feColorMatrix type="matrix" values="0 0 0 0 0 0 0 0 0 0 0 0 0 0 0 0 0 0 0.25 0"/>
<feBlend mode="normal" in2="BackgroundImageFix" result="effect1_dropShadow_54_55"/>
<feBlend mode="normal" in="SourceGraphic" in2="effect1_dropShadow_54_55" result="shape"/>
</filter>
</defs>
</svg>
