<svg width="500" height="500" viewBox="0 0 500 500" fill="none" xmlns="http://www.w3.org/2000/svg">
<rect width="500" height="500" fill="white"/>
<g filter="url(#filter0_d_54_81)">
<path d="M305.173 250C305.173 262.93 302.751 274.004 297.908 283.223C293.103 292.402 286.541 299.434 278.22 304.316C269.939 309.199 260.544 311.641 250.037 311.641C239.529 311.641 230.115 309.199 221.794 304.316C213.513 299.395 206.951 292.344 202.107 283.164C197.302 273.945 194.9 262.891 194.9 250C194.9 237.07 197.302 226.016 202.107 216.836C206.951 207.617 213.513 200.566 221.794 195.684C230.115 190.801 239.529 188.359 250.037 188.359C260.544 188.359 269.939 190.801 278.22 195.684C286.541 200.566 293.103 207.617 297.908 216.836C302.751 226.016 305.173 237.07 305.173 250ZM283.318 250C283.318 240.898 281.892 233.223 279.041 226.973C276.228 220.684 272.322 215.938 267.322 212.734C262.322 209.492 256.56 207.871 250.037 207.871C243.513 207.871 237.751 209.492 232.751 212.734C227.751 215.938 223.826 220.684 220.974 226.973C218.162 233.223 216.755 240.898 216.755 250C216.755 259.102 218.162 266.797 220.974 273.086C223.826 279.336 227.751 284.082 232.751 287.324C237.751 290.527 243.513 292.129 250.037 292.129C256.56 292.129 262.322 290.527 267.322 287.324C272.322 284.082 276.228 279.336 279.041 273.086C281.892 266.797 283.318 259.102 283.318 250Z" fill="#F200FF"/>
</g>
<defs>
<filter id="filter0_d_54_81" x="194.9" y="185.359" width="124.273" height="131.281" filterUnits="userSpaceOnUse" color-interpolation-filters="sRGB">
<feFlood flood-opacity="0" result="BackgroundImageFix"/>
<feColorMatrix in="SourceAlpha" type="matrix" values="0 0 0 0 0 0 0 0 0 0 0 0 0 0 0 0 0 0 127 0" result="hardAlpha"/>
<feOffset dx="10" dy="1"/>
<feGaussianBlur stdDeviation="2"/>
<feComposite in2="hardAlpha" operator="out"/>
<feColorMatrix type="matrix" values="0 0 0 0 0 0 0 0 0 0 0 0 0 0 0 0 0 0 0.25 0"/>
<feBlend mode="normal" in2="BackgroundImageFix" result="effect1_dropShadow_54_81"/>
<feBlend mode="normal" in="SourceGraphic" in2="effect1_dropShadow_54_81" result="shape"/>
</filter>
</defs>
</svg>
