<svg width="500" height="500" viewBox="0 0 500 500" fill="none" xmlns="http://www.w3.org/2000/svg">
<rect width="500" height="500" fill="white"/>
<g filter="url(#filter0_d_54_57)">
<path d="M303.74 230.488H281.826C281.201 226.895 280.048 223.711 278.369 220.937C276.689 218.125 274.599 215.742 272.099 213.789C269.599 211.836 266.748 210.371 263.544 209.395C260.38 208.379 256.962 207.871 253.291 207.871C246.767 207.871 240.986 209.512 235.947 212.793C230.908 216.035 226.962 220.801 224.111 227.09C221.259 233.34 219.833 240.977 219.833 250C219.833 259.18 221.259 266.914 224.111 273.203C227.001 279.453 230.947 284.18 235.947 287.383C240.986 290.547 246.748 292.129 253.232 292.129C256.826 292.129 260.185 291.66 263.31 290.723C266.474 289.746 269.306 288.32 271.806 286.445C274.345 284.57 276.474 282.266 278.193 279.531C279.951 276.797 281.162 273.672 281.826 270.156L303.74 270.273C302.919 275.977 301.142 281.328 298.408 286.328C295.712 291.328 292.177 295.742 287.802 299.57C283.427 303.359 278.31 306.328 272.451 308.477C266.591 310.586 260.087 311.641 252.939 311.641C242.392 311.641 232.978 309.199 224.697 304.316C216.416 299.434 209.892 292.383 205.126 283.164C200.361 273.945 197.978 262.891 197.978 250C197.978 237.07 200.38 226.016 205.185 216.836C209.99 207.617 216.533 200.566 224.814 195.684C233.095 190.801 242.47 188.359 252.939 188.359C259.619 188.359 265.83 189.297 271.572 191.172C277.314 193.047 282.431 195.801 286.923 199.434C291.416 203.027 295.107 207.441 297.998 212.676C300.927 217.871 302.841 223.809 303.74 230.488Z" fill="#FFCC00"/>
</g>
<defs>
<filter id="filter0_d_54_57" x="197.978" y="185.359" width="119.762" height="131.281" filterUnits="userSpaceOnUse" color-interpolation-filters="sRGB">
<feFlood flood-opacity="0" result="BackgroundImageFix"/>
<feColorMatrix in="SourceAlpha" type="matrix" values="0 0 0 0 0 0 0 0 0 0 0 0 0 0 0 0 0 0 127 0" result="hardAlpha"/>
<feOffset dx="10" dy="1"/>
<feGaussianBlur stdDeviation="2"/>
<feComposite in2="hardAlpha" operator="out"/>
<feColorMatrix type="matrix" values="0 0 0 0 0 0 0 0 0 0 0 0 0 0 0 0 0 0 0.25 0"/>
<feBlend mode="normal" in2="BackgroundImageFix" result="effect1_dropShadow_54_57"/>
<feBlend mode="normal" in="SourceGraphic" in2="effect1_dropShadow_54_57" result="shape"/>
</filter>
</defs>
</svg>
