<svg width="500" height="500" viewBox="0 0 500 500" fill="none" xmlns="http://www.w3.org/2000/svg">
<rect width="500" height="500" fill="white"/>
<g filter="url(#filter0_d_54_121)">
<path d="M249.328 188.359C255.07 188.398 260.656 189.414 266.086 191.406C271.555 193.359 276.477 196.562 280.852 201.016C285.227 205.43 288.703 211.348 291.281 218.77C293.859 226.191 295.148 235.371 295.148 246.309C295.188 256.621 294.094 265.84 291.867 273.965C289.68 282.051 286.535 288.887 282.434 294.473C278.332 300.059 273.391 304.316 267.609 307.246C261.828 310.176 255.324 311.641 248.098 311.641C240.52 311.641 233.801 310.156 227.941 307.187C222.121 304.219 217.414 300.156 213.82 295C210.227 289.844 208.02 283.945 207.199 277.305H228.586C229.68 282.07 231.906 285.859 235.266 288.672C238.664 291.445 242.941 292.832 248.098 292.832C256.418 292.832 262.824 289.219 267.316 281.992C271.809 274.766 274.055 264.727 274.055 251.875H273.234C271.32 255.312 268.84 258.281 265.793 260.781C262.746 263.242 259.289 265.137 255.422 266.465C251.594 267.793 247.531 268.457 243.234 268.457C236.203 268.457 229.875 266.777 224.25 263.418C218.664 260.059 214.23 255.449 210.949 249.59C207.707 243.73 206.066 237.031 206.027 229.492C206.027 221.68 207.824 214.668 211.418 208.457C215.051 202.207 220.109 197.285 226.594 193.691C233.078 190.059 240.656 188.281 249.328 188.359ZM249.387 205.938C245.168 205.938 241.359 206.973 237.961 209.043C234.602 211.074 231.945 213.848 229.992 217.363C228.078 220.84 227.121 224.727 227.121 229.023C227.16 233.281 228.117 237.148 229.992 240.625C231.906 244.102 234.504 246.855 237.785 248.887C241.105 250.918 244.895 251.934 249.152 251.934C252.316 251.934 255.266 251.328 258 250.117C260.734 248.906 263.117 247.227 265.148 245.078C267.219 242.891 268.82 240.41 269.953 237.637C271.125 234.863 271.691 231.934 271.652 228.848C271.652 224.746 270.676 220.957 268.723 217.48C266.809 214.004 264.172 211.211 260.812 209.102C257.492 206.992 253.684 205.938 249.387 205.938Z" fill="#FF0004"/>
</g>
<defs>
<filter id="filter0_d_54_121" x="206.027" y="185.242" width="103.18" height="131.398" filterUnits="userSpaceOnUse" color-interpolation-filters="sRGB">
<feFlood flood-opacity="0" result="BackgroundImageFix"/>
<feColorMatrix in="SourceAlpha" type="matrix" values="0 0 0 0 0 0 0 0 0 0 0 0 0 0 0 0 0 0 127 0" result="hardAlpha"/>
<feOffset dx="10" dy="1"/>
<feGaussianBlur stdDeviation="2"/>
<feComposite in2="hardAlpha" operator="out"/>
<feColorMatrix type="matrix" values="0 0 0 0 0 0 0 0 0 0 0 0 0 0 0 0 0 0 0.25 0"/>
<feBlend mode="normal" in2="BackgroundImageFix" result="effect1_dropShadow_54_121"/>
<feBlend mode="normal" in="SourceGraphic" in2="effect1_dropShadow_54_121" result="shape"/>
</filter>
</defs>
</svg>
