<svg width="500" height="500" viewBox="0 0 500 500" fill="none" xmlns="http://www.w3.org/2000/svg">
<rect width="500" height="500" fill="white"/>
<g filter="url(#filter0_d_54_109)">
<path d="M249.993 311.641C241.555 311.641 234.055 310.195 227.493 307.305C220.969 304.414 215.813 300.391 212.024 295.234C208.235 290.078 206.223 284.121 205.989 277.363H228.02C228.215 280.605 229.29 283.437 231.243 285.859C233.196 288.242 235.793 290.098 239.036 291.426C242.278 292.754 245.911 293.418 249.934 293.418C254.231 293.418 258.04 292.676 261.36 291.191C264.68 289.668 267.278 287.559 269.153 284.863C271.028 282.168 271.946 279.062 271.907 275.547C271.946 271.914 271.008 268.711 269.094 265.937C267.18 263.164 264.407 260.996 260.774 259.434C257.18 257.871 252.844 257.09 247.766 257.09H237.161V240.332H247.766C251.946 240.332 255.598 239.609 258.723 238.164C261.887 236.719 264.368 234.687 266.165 232.07C267.961 229.414 268.84 226.348 268.801 222.871C268.84 219.473 268.079 216.523 266.516 214.023C264.993 211.484 262.825 209.512 260.012 208.105C257.239 206.699 253.977 205.996 250.227 205.996C246.555 205.996 243.157 206.66 240.032 207.988C236.907 209.316 234.387 211.211 232.473 213.672C230.559 216.094 229.543 218.984 229.426 222.344H208.508C208.665 215.625 210.598 209.727 214.309 204.648C218.059 199.531 223.059 195.547 229.309 192.695C235.559 189.805 242.571 188.359 250.344 188.359C258.352 188.359 265.305 189.863 271.204 192.871C277.141 195.84 281.731 199.844 284.973 204.883C288.215 209.922 289.836 215.488 289.836 221.582C289.875 228.34 287.883 234.004 283.86 238.574C279.875 243.145 274.641 246.133 268.157 247.539V248.477C276.594 249.648 283.059 252.773 287.551 257.852C292.083 262.891 294.329 269.16 294.29 276.66C294.29 283.379 292.375 289.395 288.547 294.707C284.758 299.98 279.524 304.121 272.844 307.129C266.204 310.137 258.586 311.641 249.993 311.641Z" fill="#5D00FF"/>
</g>
<defs>
<filter id="filter0_d_54_109" x="205.989" y="185.359" width="102.359" height="131.281" filterUnits="userSpaceOnUse" color-interpolation-filters="sRGB">
<feFlood flood-opacity="0" result="BackgroundImageFix"/>
<feColorMatrix in="SourceAlpha" type="matrix" values="0 0 0 0 0 0 0 0 0 0 0 0 0 0 0 0 0 0 127 0" result="hardAlpha"/>
<feOffset dx="10" dy="1"/>
<feGaussianBlur stdDeviation="2"/>
<feComposite in2="hardAlpha" operator="out"/>
<feColorMatrix type="matrix" values="0 0 0 0 0 0 0 0 0 0 0 0 0 0 0 0 0 0 0.25 0"/>
<feBlend mode="normal" in2="BackgroundImageFix" result="effect1_dropShadow_54_109"/>
<feBlend mode="normal" in="SourceGraphic" in2="effect1_dropShadow_54_109" result="shape"/>
</filter>
</defs>
</svg>
