<svg width="500" height="500" viewBox="0 0 500 500" fill="none" xmlns="http://www.w3.org/2000/svg">
<rect width="500" height="500" fill="white"/>
<g filter="url(#filter0_d_54_113)">
<path d="M250.676 311.641C242.863 311.641 235.871 310.176 229.699 307.246C223.527 304.277 218.625 300.215 214.992 295.059C211.398 289.902 209.484 284.004 209.25 277.363H230.344C230.734 282.285 232.863 286.309 236.73 289.434C240.598 292.52 245.246 294.062 250.676 294.062C254.934 294.062 258.723 293.086 262.043 291.133C265.363 289.18 267.98 286.465 269.895 282.988C271.809 279.512 272.746 275.547 272.707 271.094C272.746 266.562 271.789 262.539 269.836 259.023C267.883 255.508 265.207 252.754 261.809 250.762C258.41 248.73 254.504 247.715 250.09 247.715C246.496 247.676 242.961 248.34 239.484 249.707C236.008 251.074 233.254 252.871 231.223 255.098L211.594 251.875L217.863 190H287.473V208.164H235.852L232.395 239.98H233.098C235.324 237.363 238.469 235.195 242.531 233.477C246.594 231.719 251.047 230.84 255.891 230.84C263.156 230.84 269.641 232.559 275.344 235.996C281.047 239.395 285.539 244.082 288.82 250.059C292.102 256.035 293.742 262.871 293.742 270.566C293.742 278.496 291.906 285.566 288.234 291.777C284.602 297.949 279.543 302.812 273.059 306.367C266.613 309.883 259.152 311.641 250.676 311.641Z" fill="#C300FF"/>
</g>
<defs>
<filter id="filter0_d_54_113" x="209.25" y="187" width="98.4922" height="129.641" filterUnits="userSpaceOnUse" color-interpolation-filters="sRGB">
<feFlood flood-opacity="0" result="BackgroundImageFix"/>
<feColorMatrix in="SourceAlpha" type="matrix" values="0 0 0 0 0 0 0 0 0 0 0 0 0 0 0 0 0 0 127 0" result="hardAlpha"/>
<feOffset dx="10" dy="1"/>
<feGaussianBlur stdDeviation="2"/>
<feComposite in2="hardAlpha" operator="out"/>
<feColorMatrix type="matrix" values="0 0 0 0 0 0 0 0 0 0 0 0 0 0 0 0 0 0 0.25 0"/>
<feBlend mode="normal" in2="BackgroundImageFix" result="effect1_dropShadow_54_113"/>
<feBlend mode="normal" in="SourceGraphic" in2="effect1_dropShadow_54_113" result="shape"/>
</filter>
</defs>
</svg>
