<svg width="500" height="500" viewBox="0 0 500 500" fill="none" xmlns="http://www.w3.org/2000/svg">
<rect width="500" height="500" fill="white"/>
<g filter="url(#filter0_d_54_89)">
<path d="M273.474 222.988C272.927 217.871 270.623 213.887 266.56 211.035C262.537 208.184 257.302 206.758 250.857 206.758C246.326 206.758 242.439 207.441 239.197 208.809C235.955 210.176 233.474 212.031 231.755 214.375C230.037 216.719 229.158 219.395 229.119 222.402C229.119 224.902 229.685 227.07 230.818 228.906C231.99 230.742 233.572 232.305 235.564 233.594C237.556 234.844 239.763 235.898 242.185 236.758C244.607 237.617 247.048 238.34 249.509 238.926L260.759 241.738C265.291 242.793 269.646 244.219 273.826 246.016C278.044 247.812 281.814 250.078 285.134 252.813C288.494 255.547 291.15 258.848 293.103 262.715C295.056 266.582 296.033 271.113 296.033 276.309C296.033 283.34 294.236 289.531 290.642 294.883C287.048 300.195 281.853 304.355 275.056 307.363C268.298 310.332 260.115 311.816 250.505 311.816C241.169 311.816 233.064 310.371 226.189 307.48C219.353 304.59 214.001 300.371 210.134 294.824C206.306 289.277 204.236 282.52 203.923 274.551H225.31C225.623 278.73 226.912 282.207 229.177 284.98C231.443 287.754 234.392 289.824 238.025 291.191C241.697 292.559 245.798 293.242 250.33 293.242C255.056 293.242 259.197 292.539 262.751 291.133C266.345 289.687 269.158 287.695 271.189 285.156C273.22 282.578 274.255 279.57 274.294 276.133C274.255 273.008 273.337 270.43 271.541 268.398C269.744 266.328 267.224 264.609 263.982 263.242C260.779 261.836 257.029 260.586 252.732 259.492L239.08 255.977C229.197 253.437 221.384 249.59 215.642 244.434C209.939 239.238 207.087 232.344 207.087 223.75C207.087 216.68 209.001 210.488 212.83 205.176C216.697 199.863 221.951 195.742 228.591 192.812C235.232 189.844 242.751 188.359 251.15 188.359C259.666 188.359 267.126 189.844 273.533 192.812C279.978 195.742 285.037 199.824 288.708 205.059C292.38 210.254 294.275 216.23 294.392 222.988H273.474Z" fill="#FF7700"/>
</g>
<defs>
<filter id="filter0_d_54_89" x="203.923" y="185.359" width="106.109" height="131.457" filterUnits="userSpaceOnUse" color-interpolation-filters="sRGB">
<feFlood flood-opacity="0" result="BackgroundImageFix"/>
<feColorMatrix in="SourceAlpha" type="matrix" values="0 0 0 0 0 0 0 0 0 0 0 0 0 0 0 0 0 0 127 0" result="hardAlpha"/>
<feOffset dx="10" dy="1"/>
<feGaussianBlur stdDeviation="2"/>
<feComposite in2="hardAlpha" operator="out"/>
<feColorMatrix type="matrix" values="0 0 0 0 0 0 0 0 0 0 0 0 0 0 0 0 0 0 0.25 0"/>
<feBlend mode="normal" in2="BackgroundImageFix" result="effect1_dropShadow_54_89"/>
<feBlend mode="normal" in="SourceGraphic" in2="effect1_dropShadow_54_89" result="shape"/>
</filter>
</defs>
</svg>
