<svg width="500" height="500" viewBox="0 0 500 500" fill="none" xmlns="http://www.w3.org/2000/svg">
<rect width="500" height="500" fill="white"/>
<g filter="url(#filter0_d_54_71)">
<path d="M263.435 190H284.997V274.375C284.958 282.109 283.317 288.77 280.075 294.355C276.833 299.902 272.302 304.18 266.481 307.187C260.7 310.156 253.962 311.641 246.267 311.641C239.235 311.641 232.907 310.391 227.282 307.891C221.696 305.352 217.263 301.602 213.981 296.641C210.7 291.68 209.06 285.508 209.06 278.125H230.681C230.72 281.367 231.423 284.16 232.79 286.504C234.196 288.848 236.13 290.645 238.591 291.895C241.052 293.145 243.884 293.77 247.087 293.77C250.563 293.77 253.513 293.047 255.935 291.602C258.356 290.117 260.192 287.93 261.442 285.039C262.731 282.148 263.396 278.594 263.435 274.375V190Z" fill="#0080FF"/>
</g>
<defs>
<filter id="filter0_d_54_71" x="209.06" y="187" width="89.9375" height="129.641" filterUnits="userSpaceOnUse" color-interpolation-filters="sRGB">
<feFlood flood-opacity="0" result="BackgroundImageFix"/>
<feColorMatrix in="SourceAlpha" type="matrix" values="0 0 0 0 0 0 0 0 0 0 0 0 0 0 0 0 0 0 127 0" result="hardAlpha"/>
<feOffset dx="10" dy="1"/>
<feGaussianBlur stdDeviation="2"/>
<feComposite in2="hardAlpha" operator="out"/>
<feColorMatrix type="matrix" values="0 0 0 0 0 0 0 0 0 0 0 0 0 0 0 0 0 0 0.25 0"/>
<feBlend mode="normal" in2="BackgroundImageFix" result="effect1_dropShadow_54_71"/>
<feBlend mode="normal" in="SourceGraphic" in2="effect1_dropShadow_54_71" result="shape"/>
</filter>
</defs>
</svg>
