<svg width="500" height="500" viewBox="0 0 500 500" fill="none" xmlns="http://www.w3.org/2000/svg">
<rect width="500" height="500" fill="white"/>
<g filter="url(#filter0_d_54_115)">
<path d="M251.613 311.641C245.871 311.602 240.266 310.605 234.797 308.652C229.328 306.66 224.406 303.437 220.031 298.984C215.656 294.492 212.18 288.535 209.602 281.113C207.023 273.652 205.754 264.414 205.793 253.398C205.793 243.125 206.887 233.965 209.074 225.918C211.262 217.871 214.406 211.074 218.508 205.527C222.609 199.941 227.551 195.684 233.332 192.754C239.152 189.824 245.656 188.359 252.844 188.359C260.383 188.359 267.063 189.844 272.883 192.812C278.742 195.781 283.469 199.844 287.063 205C290.656 210.117 292.883 215.898 293.742 222.344H272.355C271.262 217.734 269.016 214.062 265.617 211.328C262.258 208.555 258 207.168 252.844 207.168C244.523 207.168 238.117 210.781 233.625 218.008C229.172 225.234 226.926 235.156 226.887 247.773H227.707C229.621 244.336 232.102 241.387 235.148 238.926C238.195 236.465 241.633 234.57 245.461 233.242C249.328 231.875 253.41 231.191 257.707 231.191C264.738 231.191 271.047 232.871 276.633 236.23C282.258 239.59 286.711 244.219 289.992 250.117C293.273 255.977 294.895 262.695 294.855 270.273C294.895 278.164 293.098 285.254 289.465 291.543C285.832 297.793 280.773 302.715 274.289 306.309C267.805 309.902 260.246 311.68 251.613 311.641ZM251.496 294.062C255.754 294.062 259.563 293.027 262.922 290.957C266.281 288.887 268.938 286.094 270.891 282.578C272.844 279.062 273.801 275.117 273.762 270.742C273.801 266.445 272.863 262.559 270.949 259.082C269.074 255.605 266.477 252.852 263.156 250.82C259.836 248.789 256.047 247.773 251.789 247.773C248.625 247.773 245.676 248.379 242.941 249.59C240.207 250.801 237.824 252.48 235.793 254.629C233.762 256.738 232.16 259.199 230.988 262.012C229.855 264.785 229.27 267.754 229.23 270.918C229.27 275.098 230.246 278.945 232.16 282.461C234.074 285.977 236.711 288.789 240.07 290.898C243.43 293.008 247.238 294.062 251.496 294.062Z" fill="#F320FF"/>
</g>
<defs>
<filter id="filter0_d_54_115" x="205.734" y="185.359" width="103.18" height="131.34" filterUnits="userSpaceOnUse" color-interpolation-filters="sRGB">
<feFlood flood-opacity="0" result="BackgroundImageFix"/>
<feColorMatrix in="SourceAlpha" type="matrix" values="0 0 0 0 0 0 0 0 0 0 0 0 0 0 0 0 0 0 127 0" result="hardAlpha"/>
<feOffset dx="10" dy="1"/>
<feGaussianBlur stdDeviation="2"/>
<feComposite in2="hardAlpha" operator="out"/>
<feColorMatrix type="matrix" values="0 0 0 0 0 0 0 0 0 0 0 0 0 0 0 0 0 0 0.25 0"/>
<feBlend mode="normal" in2="BackgroundImageFix" result="effect1_dropShadow_54_115"/>
<feBlend mode="normal" in="SourceGraphic" in2="effect1_dropShadow_54_115" result="shape"/>
</filter>
</defs>
</svg>
