<svg width="500" height="500" viewBox="0 0 500 500" fill="none" xmlns="http://www.w3.org/2000/svg">
<rect width="500" height="500" fill="white"/>
<g filter="url(#filter0_d_54_123)">
<path d="M214.807 190V310H193.069V211.152H192.366L164.299 229.082V209.16L194.124 190H214.807ZM289.631 312.285C279.983 312.285 271.702 309.844 264.788 304.961C257.913 300.039 252.62 292.949 248.909 283.691C245.237 274.395 243.401 263.203 243.401 250.117C243.44 237.031 245.295 225.898 248.967 216.719C252.678 207.5 257.971 200.469 264.846 195.625C271.76 190.781 280.022 188.359 289.631 188.359C299.241 188.359 307.502 190.781 314.417 195.625C321.331 200.469 326.624 207.5 330.295 216.719C334.006 225.937 335.862 237.07 335.862 250.117C335.862 263.242 334.006 274.453 330.295 283.75C326.624 293.008 321.331 300.078 314.417 304.961C307.542 309.844 299.28 312.285 289.631 312.285ZM289.631 293.945C297.131 293.945 303.049 290.254 307.385 282.871C311.76 275.449 313.948 264.531 313.948 250.117C313.948 240.586 312.952 232.578 310.959 226.094C308.967 219.609 306.155 214.727 302.522 211.445C298.889 208.125 294.592 206.465 289.631 206.465C282.17 206.465 276.272 210.176 271.936 217.598C267.6 224.98 265.413 235.82 265.374 250.117C265.334 259.687 266.292 267.734 268.245 274.258C270.237 280.781 273.049 285.703 276.682 289.023C280.315 292.305 284.631 293.945 289.631 293.945Z" fill="#FF7700"/>
</g>
<defs>
<filter id="filter0_d_54_123" x="164.299" y="185.359" width="185.562" height="131.926" filterUnits="userSpaceOnUse" color-interpolation-filters="sRGB">
<feFlood flood-opacity="0" result="BackgroundImageFix"/>
<feColorMatrix in="SourceAlpha" type="matrix" values="0 0 0 0 0 0 0 0 0 0 0 0 0 0 0 0 0 0 127 0" result="hardAlpha"/>
<feOffset dx="10" dy="1"/>
<feGaussianBlur stdDeviation="2"/>
<feComposite in2="hardAlpha" operator="out"/>
<feColorMatrix type="matrix" values="0 0 0 0 0 0 0 0 0 0 0 0 0 0 0 0 0 0 0.25 0"/>
<feBlend mode="normal" in2="BackgroundImageFix" result="effect1_dropShadow_54_123"/>
<feBlend mode="normal" in="SourceGraphic" in2="effect1_dropShadow_54_123" result="shape"/>
</filter>
</defs>
</svg>
