<svg width="500" height="500" viewBox="0 0 500 500" fill="none" xmlns="http://www.w3.org/2000/svg">
<rect width="500" height="500" fill="white"/>
<g filter="url(#filter0_d_54_119)">
<path d="M250.566 311.641C241.855 311.641 234.121 310.176 227.363 307.246C220.644 304.316 215.371 300.312 211.542 295.234C207.753 290.117 205.878 284.316 205.917 277.832C205.878 272.793 206.972 268.164 209.199 263.945C211.425 259.727 214.433 256.211 218.222 253.398C222.05 250.547 226.308 248.73 230.996 247.949V247.129C224.824 245.762 219.824 242.617 215.996 237.695C212.207 232.734 210.332 227.012 210.371 220.527C210.332 214.355 212.05 208.848 215.527 204.004C219.003 199.16 223.769 195.352 229.824 192.578C235.878 189.766 242.792 188.359 250.566 188.359C258.261 188.359 265.117 189.766 271.132 192.578C277.187 195.352 281.953 199.16 285.429 204.004C288.945 208.848 290.703 214.355 290.703 220.527C290.703 227.012 288.769 232.734 284.902 237.695C281.074 242.617 276.132 245.762 270.078 247.129V247.949C274.765 248.73 278.984 250.547 282.734 253.398C286.523 256.211 289.531 259.727 291.757 263.945C294.023 268.164 295.156 272.793 295.156 277.832C295.156 284.316 293.242 290.117 289.414 295.234C285.585 300.312 280.312 304.316 273.593 307.246C266.914 310.176 259.238 311.641 250.566 311.641ZM250.566 294.883C255.058 294.883 258.964 294.121 262.285 292.598C265.605 291.035 268.183 288.848 270.019 286.035C271.855 283.223 272.792 279.98 272.832 276.309C272.792 272.48 271.796 269.102 269.843 266.172C267.929 263.203 265.292 260.879 261.933 259.199C258.613 257.52 254.824 256.68 250.566 256.68C246.269 256.68 242.441 257.52 239.082 259.199C235.722 260.879 233.066 263.203 231.113 266.172C229.199 269.102 228.261 272.48 228.3 276.309C228.261 279.98 229.16 283.223 230.996 286.035C232.832 288.809 235.41 290.977 238.73 292.539C242.089 294.102 246.035 294.883 250.566 294.883ZM250.566 240.215C254.238 240.215 257.48 239.473 260.292 237.988C263.144 236.504 265.39 234.434 267.031 231.777C268.671 229.121 269.511 226.055 269.55 222.578C269.511 219.141 268.691 216.133 267.089 213.555C265.488 210.937 263.261 208.926 260.41 207.52C257.558 206.074 254.277 205.352 250.566 205.352C246.777 205.352 243.437 206.074 240.546 207.52C237.695 208.926 235.468 210.937 233.867 213.555C232.304 216.133 231.542 219.141 231.582 222.578C231.542 226.055 232.324 229.121 233.925 231.777C235.566 234.395 237.812 236.465 240.664 237.988C243.554 239.473 246.855 240.215 250.566 240.215Z" fill="#FF0062"/>
</g>
<defs>
<filter id="filter0_d_54_119" x="205.859" y="185.359" width="103.297" height="131.281" filterUnits="userSpaceOnUse" color-interpolation-filters="sRGB">
<feFlood flood-opacity="0" result="BackgroundImageFix"/>
<feColorMatrix in="SourceAlpha" type="matrix" values="0 0 0 0 0 0 0 0 0 0 0 0 0 0 0 0 0 0 127 0" result="hardAlpha"/>
<feOffset dx="10" dy="1"/>
<feGaussianBlur stdDeviation="2"/>
<feComposite in2="hardAlpha" operator="out"/>
<feColorMatrix type="matrix" values="0 0 0 0 0 0 0 0 0 0 0 0 0 0 0 0 0 0 0.25 0"/>
<feBlend mode="normal" in2="BackgroundImageFix" result="effect1_dropShadow_54_119"/>
<feBlend mode="normal" in="SourceGraphic" in2="effect1_dropShadow_54_119" result="shape"/>
</filter>
</defs>
</svg>
