<svg width="500" height="500" viewBox="0 0 500 500" fill="none" xmlns="http://www.w3.org/2000/svg">
<rect width="500" height="500" fill="white"/>
<g filter="url(#filter0_d_54_65)">
<path d="M280.449 228.32C279.472 225.156 278.125 222.324 276.406 219.824C274.726 217.285 272.695 215.117 270.312 213.32C267.968 211.523 265.273 210.176 262.226 209.277C259.179 208.34 255.859 207.871 252.265 207.871C245.82 207.871 240.078 209.492 235.039 212.734C230 215.977 226.035 220.742 223.144 227.031C220.292 233.281 218.867 240.898 218.867 249.883C218.867 258.945 220.292 266.621 223.144 272.91C225.996 279.199 229.96 283.984 235.039 287.266C240.117 290.508 246.015 292.129 252.734 292.129C258.828 292.129 264.101 290.957 268.554 288.613C273.046 286.27 276.503 282.949 278.925 278.652C281.347 274.316 282.558 269.238 282.558 263.418L287.48 264.18H254.902V247.187H303.593V261.602C303.593 271.875 301.406 280.762 297.031 288.262C292.656 295.762 286.64 301.543 278.984 305.605C271.328 309.629 262.539 311.641 252.617 311.641C241.562 311.641 231.855 309.16 223.496 304.199C215.175 299.199 208.671 292.109 203.984 282.93C199.335 273.711 197.011 262.773 197.011 250.117C197.011 240.43 198.378 231.777 201.113 224.16C203.886 216.543 207.753 210.078 212.714 204.766C217.675 199.414 223.496 195.352 230.175 192.578C236.855 189.766 244.121 188.359 251.972 188.359C258.613 188.359 264.804 189.336 270.546 191.289C276.289 193.203 281.386 195.937 285.839 199.492C290.332 203.047 294.023 207.266 296.914 212.148C299.804 217.031 301.699 222.422 302.597 228.32H280.449Z" fill="#00FF66"/>
</g>
<defs>
<filter id="filter0_d_54_65" x="197.011" y="185.359" width="120.582" height="131.281" filterUnits="userSpaceOnUse" color-interpolation-filters="sRGB">
<feFlood flood-opacity="0" result="BackgroundImageFix"/>
<feColorMatrix in="SourceAlpha" type="matrix" values="0 0 0 0 0 0 0 0 0 0 0 0 0 0 0 0 0 0 127 0" result="hardAlpha"/>
<feOffset dx="10" dy="1"/>
<feGaussianBlur stdDeviation="2"/>
<feComposite in2="hardAlpha" operator="out"/>
<feColorMatrix type="matrix" values="0 0 0 0 0 0 0 0 0 0 0 0 0 0 0 0 0 0 0.25 0"/>
<feBlend mode="normal" in2="BackgroundImageFix" result="effect1_dropShadow_54_65"/>
<feBlend mode="normal" in="SourceGraphic" in2="effect1_dropShadow_54_65" result="shape"/>
</filter>
</defs>
</svg>
